<?xml version="1.0" encoding="UTF-8"?>
<!--Generator: Apple Native CoreSVG 341-->
<!DOCTYPE svg
PUBLIC "-//W3C//DTD SVG 1.1//EN"
       "http://www.w3.org/Graphics/SVG/1.1/DTD/svg11.dtd">
<svg version="1.1" xmlns="http://www.w3.org/2000/svg" xmlns:xlink="http://www.w3.org/1999/xlink" viewBox="0 0 3300 2200">
 <!--glyph: "10199A", point size: 100.0, font version: "21.0d4e1", template writer version: "138.0.0"-->
 <style>.defaults {-sfsymbols-wiggle-style:linear;-sfsymbols-wiggle-angle:-90;-sfsymbols-draw-reverses-motion-groups:false}

.monochrome-0 {-sfsymbols-motion-group:1;-sfsymbols-layer-tags:square.and.arrow.up}
.monochrome-1 {opacity:0.0;-sfsymbols-clear-behind:true;-sfsymbols-motion-group:0;-sfsymbols-layer-tags:square.and.arrow.up}
.monochrome-2 {-sfsymbols-motion-group:0;-sfsymbols-layer-tags:square.and.arrow.up}
.monochrome-3 {-sfsymbols-clear-behind:true;-sfsymbols-motion-group:0;-sfsymbols-layer-tags:square.and.arrow.up;-sfsymbols-clipstroke-attachments:1 4 2 0 0 0}

.multicolor-0:tintColor {-sfsymbols-motion-group:1;-sfsymbols-layer-tags:square.and.arrow.up}
.multicolor-1:tintColor {opacity:0.0;-sfsymbols-clear-behind:true;-sfsymbols-motion-group:0;-sfsymbols-layer-tags:square.and.arrow.up}
.multicolor-2:tintColor {-sfsymbols-motion-group:0;-sfsymbols-layer-tags:square.and.arrow.up}
.multicolor-3:tintColor {-sfsymbols-clear-behind:true;-sfsymbols-motion-group:0;-sfsymbols-layer-tags:square.and.arrow.up;-sfsymbols-clipstroke-attachments:1 4 2 0 0 0}

.hierarchical-0:secondary {-sfsymbols-motion-group:1;-sfsymbols-layer-tags:square.and.arrow.up}
.hierarchical-1:primary {opacity:0.0;-sfsymbols-clear-behind:true;-sfsymbols-motion-group:0;-sfsymbols-layer-tags:square.and.arrow.up}
.hierarchical-2:primary {-sfsymbols-motion-group:0;-sfsymbols-layer-tags:square.and.arrow.up}
.hierarchical-3:primary {-sfsymbols-clear-behind:true;-sfsymbols-motion-group:0;-sfsymbols-layer-tags:square.and.arrow.up;-sfsymbols-clipstroke-attachments:1 4 2 0 0 0}

.SFSymbolsPreviewWireframe {fill:none;opacity:1.0;stroke:black;stroke-width:0.5}
</style>
 <g id="Notes">
  <rect height="2200" id="artboard" style="fill:white;opacity:1" width="3300" x="0" y="0"/>
  <line style="fill:none;stroke:black;opacity:1;stroke-width:0.5;" x1="263" x2="3036" y1="292" y2="292"/>
  <text style="stroke:none;fill:black;font-family:sans-serif;font-size:13;font-weight:bold;" transform="matrix(1 0 0 1 263 322)">Weight/Scale Variations</text>
  <text style="stroke:none;fill:black;font-family:sans-serif;font-size:13;text-anchor:middle;" transform="matrix(1 0 0 1 559.711 322)">Ultralight</text>
  <text style="stroke:none;fill:black;font-family:sans-serif;font-size:13;text-anchor:middle;" transform="matrix(1 0 0 1 856.422 322)">Thin</text>
  <text style="stroke:none;fill:black;font-family:sans-serif;font-size:13;text-anchor:middle;" transform="matrix(1 0 0 1 1153.13 322)">Light</text>
  <text style="stroke:none;fill:black;font-family:sans-serif;font-size:13;text-anchor:middle;" transform="matrix(1 0 0 1 1449.84 322)">Regular</text>
  <text style="stroke:none;fill:black;font-family:sans-serif;font-size:13;text-anchor:middle;" transform="matrix(1 0 0 1 1746.56 322)">Medium</text>
  <text style="stroke:none;fill:black;font-family:sans-serif;font-size:13;text-anchor:middle;" transform="matrix(1 0 0 1 2043.27 322)">Semibold</text>
  <text style="stroke:none;fill:black;font-family:sans-serif;font-size:13;text-anchor:middle;" transform="matrix(1 0 0 1 2339.98 322)">Bold</text>
  <text style="stroke:none;fill:black;font-family:sans-serif;font-size:13;text-anchor:middle;" transform="matrix(1 0 0 1 2636.69 322)">Heavy</text>
  <text style="stroke:none;fill:black;font-family:sans-serif;font-size:13;text-anchor:middle;" transform="matrix(1 0 0 1 2933.4 322)">Black</text>
  <line style="fill:none;stroke:black;opacity:1;stroke-width:0.5;" x1="263" x2="3036" y1="1903" y2="1903"/>
  <g transform="matrix(0.2 0 0 0.2 263 1933)">
   <path d="m46.2402 4.15039c21.7773 0 39.4531-17.627 39.4531-39.4043s-17.6758-39.4043-39.4531-39.4043c-21.7285 0-39.4043 17.627-39.4043 39.4043s17.6758 39.4043 39.4043 39.4043Zm0-7.42188c-17.6758 0-31.9336-14.3066-31.9336-31.9824s14.2578-31.9824 31.9336-31.9824 31.9824 14.3066 31.9824 31.9824-14.3066 31.9824-31.9824 31.9824Zm3.61328-17.7734v-28.4668c0-2.24609-1.46484-3.75977-3.71094-3.75977-2.14844 0-3.61328 1.51367-3.61328 3.75977v28.4668c0 2.19727 1.46484 3.71094 3.61328 3.71094 2.24609 0 3.71094-1.51367 3.71094-3.71094Zm-17.8223-10.5957h28.418c2.19727 0 3.71094-1.46484 3.71094-3.61328 0-2.19727-1.51367-3.71094-3.71094-3.71094h-28.418c-2.24609 0-3.75977 1.51367-3.75977 3.71094 0 2.14844 1.51367 3.61328 3.75977 3.61328Z"/>
  </g>
  <g transform="matrix(0.2 0 0 0.2 281.506 1933)">
   <path d="m58.5449 14.5508c27.4902 0 49.8047-22.3145 49.8047-49.8047s-22.3145-49.8047-49.8047-49.8047-49.8047 22.3145-49.8047 49.8047 22.3145 49.8047 49.8047 49.8047Zm0-8.30078c-22.9492 0-41.5039-18.5547-41.5039-41.5039s18.5547-41.5039 41.5039-41.5039 41.5039 18.5547 41.5039 41.5039-18.5547 41.5039-41.5039 41.5039Zm4.05273-23.0957v-36.9141c0-2.49023-1.70898-4.19922-4.15039-4.19922-2.39258 0-4.05273 1.70898-4.05273 4.19922v36.9141c0 2.44141 1.66016 4.15039 4.05273 4.15039 2.44141 0 4.15039-1.66016 4.15039-4.15039Zm-22.5586-14.4043h36.9629c2.44141 0 4.15039-1.61133 4.15039-4.00391 0-2.44141-1.70898-4.15039-4.15039-4.15039h-36.9629c-2.49023 0-4.15039 1.70898-4.15039 4.15039 0 2.39258 1.66016 4.00391 4.15039 4.00391Z"/>
  </g>
  <g transform="matrix(0.2 0 0 0.2 304.924 1933)">
   <path d="m74.8535 28.3203c35.1074 0 63.623-28.4668 63.623-63.5742s-28.5156-63.623-63.623-63.623-63.5742 28.5156-63.5742 63.623 28.4668 63.5742 63.5742 63.5742Zm0-9.08203c-30.127 0-54.4922-24.3652-54.4922-54.4922s24.3652-54.4922 54.4922-54.4922 54.4922 24.3652 54.4922 54.4922-24.3652 54.4922-54.4922 54.4922Zm4.44336-30.3223v-48.4863c0-2.73438-1.85547-4.63867-4.54102-4.63867-2.58789 0-4.44336 1.9043-4.44336 4.63867v48.4863c0 2.68555 1.85547 4.58984 4.44336 4.58984 2.68555 0 4.54102-1.85547 4.54102-4.58984Zm-28.7109-19.7754h48.4863c2.68555 0 4.58984-1.80664 4.58984-4.39453 0-2.73438-1.85547-4.58984-4.58984-4.58984h-48.4863c-2.73438 0-4.58984 1.85547-4.58984 4.58984 0 2.58789 1.85547 4.39453 4.58984 4.39453Z"/>
  </g>
  <text style="stroke:none;fill:black;font-family:sans-serif;font-size:13;font-weight:bold;" transform="matrix(1 0 0 1 263 1953)">Design Variations</text>
  <text style="stroke:none;fill:black;font-family:sans-serif;font-size:13;" transform="matrix(1 0 0 1 263 1971)">Symbols are supported in up to nine weights and three scales.</text>
  <text style="stroke:none;fill:black;font-family:sans-serif;font-size:13;" transform="matrix(1 0 0 1 263 1989)">For optimal layout with text and other symbols, vertically align</text>
  <text style="stroke:none;fill:black;font-family:sans-serif;font-size:13;" transform="matrix(1 0 0 1 263 2007)">symbols with the adjacent text.</text>
  <line style="fill:none;stroke:#00AEEF;stroke-width:0.5;opacity:1.0;" x1="776" x2="776" y1="1919" y2="1933"/>
  <g transform="matrix(0.2 0 0 0.2 776 1933)">
   <path d="m16.5527 0.78125c2.58789 0 3.85742-0.976562 4.78516-3.71094l20.5566-57.5195h0.244141l20.6055 57.5195c0.927734 2.73438 2.19727 3.71094 4.73633 3.71094 2.58789 0 4.24805-1.5625 4.24805-4.00391 0-0.830078-0.146484-1.61133-0.537109-2.63672l-22.9004-60.9863c-1.12305-2.97852-3.125-4.49219-6.25-4.49219-3.02734 0-5.07812 1.46484-6.15234 4.44336l-22.9004 61.084c-0.390625 1.02539-0.537109 1.80664-0.537109 2.63672 0 2.44141 1.5625 3.95508 4.10156 3.95508Zm10.2051-20.9473h30.6641c2.00195 0 3.66211-1.66016 3.66211-3.66211 0-2.05078-1.66016-3.66211-3.66211-3.66211h-30.6641c-2.00195 0-3.66211 1.61133-3.66211 3.66211 0 2.00195 1.66016 3.66211 3.66211 3.66211Z"/>
  </g>
  <line style="fill:none;stroke:#00AEEF;stroke-width:0.5;opacity:1.0;" x1="792.836" x2="792.836" y1="1919" y2="1933"/>
  <text style="stroke:none;fill:black;font-family:sans-serif;font-size:13;font-weight:bold;" transform="matrix(1 0 0 1 776 1953)">Margins</text>
  <text style="stroke:none;fill:black;font-family:sans-serif;font-size:13;" transform="matrix(1 0 0 1 776 1971)">Leading and trailing margins on the left and right side of each symbol</text>
  <text style="stroke:none;fill:black;font-family:sans-serif;font-size:13;" transform="matrix(1 0 0 1 776 1989)">can be adjusted by modifying the x-location of the margin guidelines.</text>
  <text style="stroke:none;fill:black;font-family:sans-serif;font-size:13;" transform="matrix(1 0 0 1 776 2007)">Modifications are automatically applied proportionally to all</text>
  <text style="stroke:none;fill:black;font-family:sans-serif;font-size:13;" transform="matrix(1 0 0 1 776 2025)">scales and weights.</text>
  <g transform="matrix(0.2 0 0 0.2 1289 1933)">
   <path d="m14.209 13.1348 7.86133 7.86133c4.29688 4.39453 9.32617 4.10156 13.8672-1.02539l60.6934-68.2129-4.88281-4.88281-60.2539 67.6758c-1.80664 1.95312-3.4668 2.44141-5.81055 0.0976562l-5.17578-5.12695c-2.29492-2.29492-1.80664-3.95508 0.195312-5.81055l67.4805-62.1582-4.88281-4.83398-68.0664 62.5977c-4.98047 4.58984-5.32227 9.47266-1.02539 13.8184Zm44.873-97.4609c-2.05078 2.00195-2.24609 4.88281-1.07422 6.78711 1.12305 1.80664 3.4668 3.02734 6.5918 2.24609 5.85938-1.66016 12.5977-2.39258 18.8965 0.927734l-2.68555 7.12891c-1.61133 4.00391-0.732422 6.88477 1.70898 9.42383l10.2539 10.3027c2.34375 2.39258 4.54102 2.44141 7.08008 1.95312l4.44336-0.732422 2.58789 2.53906-0.195312 2.24609c-0.0976562 2.29492 0.537109 4.29688 2.7832 6.49414l3.36914 3.32031c2.29492 2.29492 5.51758 2.49023 7.8125 0.195312l12.9883-13.0371c2.29492-2.34375 2.14844-5.37109-0.195312-7.66602l-3.41797-3.41797c-2.19727-2.19727-4.05273-3.02734-6.34766-2.88086l-2.34375 0.244141-2.44141-2.44141 1.02539-4.6875c0.634766-2.73438-0.244141-4.98047-2.88086-7.61719l-11.2793-11.1816c-12.9395-12.8418-35.5957-11.0352-46.6797-0.146484Zm7.08008 2.05078c8.78906-6.39648 25.9766-5.66406 33.6914 1.95312l12.3047 12.207c1.02539 1.02539 1.2207 1.80664 0.927734 3.32031l-1.46484 6.64062 6.73828 6.68945 4.39453-0.244141c1.12305-0.0488281 1.51367 0.0488281 2.34375 0.878906l2.53906 2.49023-10.8398 10.8398-2.49023-2.49023c-0.830078-0.878906-0.976562-1.2207-0.927734-2.39258l0.292969-4.3457-6.68945-6.73828-6.83594 1.17188c-1.41602 0.292969-2.05078 0.195312-3.17383-0.878906l-8.93555-8.88672c-1.07422-1.02539-1.17188-1.70898-0.488281-3.36914l4.58984-11.4746c-6.10352-6.34766-17.041-7.51953-25.5859-4.58984-0.683594 0.244141-0.927734-0.390625-0.390625-0.78125Z"/>
  </g>
  <text style="stroke:none;fill:black;font-family:sans-serif;font-size:13;font-weight:bold;" transform="matrix(1 0 0 1 1289 1953)">Exporting</text>
  <text style="stroke:none;fill:black;font-family:sans-serif;font-size:13;" transform="matrix(1 0 0 1 1289 1971)">Symbols should be outlined when exporting to ensure the</text>
  <text style="stroke:none;fill:black;font-family:sans-serif;font-size:13;" transform="matrix(1 0 0 1 1289 1989)">design is preserved when submitting to Xcode.</text>
  <text id="template-version" style="stroke:none;fill:black;font-family:sans-serif;font-size:13;text-anchor:end;" transform="matrix(1 0 0 1 3036 1933)">Template v.7.0</text>
  <text style="stroke:none;fill:black;font-family:sans-serif;font-size:13;text-anchor:end;" transform="matrix(1 0 0 1 3036 1951)">Requires Xcode 17 or greater</text>
  <text id="descriptive-name" style="stroke:none;fill:black;font-family:sans-serif;font-size:13;text-anchor:end;" transform="matrix(1 0 0 1 3036 1969)">Generated from square.and.arrow.up</text>
  <text style="stroke:none;fill:black;font-family:sans-serif;font-size:13;text-anchor:end;" transform="matrix(1 0 0 1 3036 1987)">Typeset at 100.0 points</text>
  <text style="stroke:none;fill:black;font-family:sans-serif;font-size:13;" transform="matrix(1 0 0 1 263 726)">Small</text>
  <text style="stroke:none;fill:black;font-family:sans-serif;font-size:13;" transform="matrix(1 0 0 1 263 1156)">Medium</text>
  <text style="stroke:none;fill:black;font-family:sans-serif;font-size:13;" transform="matrix(1 0 0 1 263 1586)">Large</text>
 </g>
 <g id="Guides">
  <g id="H-reference" style="fill:#27AAE1;stroke:none;" transform="matrix(1 0 0 1 339 696)">
   <path d="M0.993654 0L3.63775 0L29.3281-67.1323L30.0303-67.1323L30.0303-70.459L28.1226-70.459ZM11.6885-24.4799L46.9815-24.4799L46.2315-26.7285L12.4385-26.7285ZM55.1196 0L57.7637 0L30.6382-70.459L29.4326-70.459L29.4326-67.1323Z"/>
  </g>
  <line id="Baseline-S" style="fill:none;stroke:#27AAE1;opacity:1;stroke-width:0.5;" x1="263" x2="3036" y1="696" y2="696"/>
  <line id="Capline-S" style="fill:none;stroke:#27AAE1;opacity:1;stroke-width:0.5;" x1="263" x2="3036" y1="625.541" y2="625.541"/>
  <g id="H-reference" style="fill:#27AAE1;stroke:none;" transform="matrix(1 0 0 1 339 1126)">
   <path d="M0.993654 0L3.63775 0L29.3281-67.1323L30.0303-67.1323L30.0303-70.459L28.1226-70.459ZM11.6885-24.4799L46.9815-24.4799L46.2315-26.7285L12.4385-26.7285ZM55.1196 0L57.7637 0L30.6382-70.459L29.4326-70.459L29.4326-67.1323Z"/>
  </g>
  <line id="Baseline-M" style="fill:none;stroke:#27AAE1;opacity:1;stroke-width:0.5;" x1="263" x2="3036" y1="1126" y2="1126"/>
  <line id="Capline-M" style="fill:none;stroke:#27AAE1;opacity:1;stroke-width:0.5;" x1="263" x2="3036" y1="1055.54" y2="1055.54"/>
  <g id="H-reference" style="fill:#27AAE1;stroke:none;" transform="matrix(1 0 0 1 339 1556)">
   <path d="M0.993654 0L3.63775 0L29.3281-67.1323L30.0303-67.1323L30.0303-70.459L28.1226-70.459ZM11.6885-24.4799L46.9815-24.4799L46.2315-26.7285L12.4385-26.7285ZM55.1196 0L57.7637 0L30.6382-70.459L29.4326-70.459L29.4326-67.1323Z"/>
  </g>
  <line id="Baseline-L" style="fill:none;stroke:#27AAE1;opacity:1;stroke-width:0.5;" x1="263" x2="3036" y1="1556" y2="1556"/>
  <line id="Capline-L" style="fill:none;stroke:#27AAE1;opacity:1;stroke-width:0.5;" x1="263" x2="3036" y1="1485.54" y2="1485.54"/>
  <line id="right-margin-Black-S" style="fill:none;stroke:#00AEEF;stroke-width:0.5;opacity:1.0;" x1="2980.81" x2="2980.81" y1="600.785" y2="720.121"/>
  <line id="left-margin-Black-S" style="fill:none;stroke:#00AEEF;stroke-width:0.5;opacity:1.0;" x1="2885.99" x2="2885.99" y1="600.785" y2="720.121"/>
  <line id="right-margin-Regular-S" style="fill:none;stroke:#00AEEF;stroke-width:0.5;opacity:1.0;" x1="1493.96" x2="1493.96" y1="600.785" y2="720.121"/>
  <line id="left-margin-Regular-S" style="fill:none;stroke:#00AEEF;stroke-width:0.5;opacity:1.0;" x1="1405.73" x2="1405.73" y1="600.785" y2="720.121"/>
  <line id="right-margin-Ultralight-S" style="fill:none;stroke:#00AEEF;stroke-width:0.5;opacity:1.0;" x1="601.625" x2="601.625" y1="600.785" y2="720.121"/>
  <line id="left-margin-Ultralight-S" style="fill:none;stroke:#00AEEF;stroke-width:0.5;opacity:1.0;" x1="517.797" x2="517.797" y1="600.785" y2="720.121"/>
 </g>
 <g id="Symbols">
  <g id="Black-S" transform="matrix(1 0 0 1 2885.99 696)">
   <path class="monochrome-0 multicolor-0:tintColor hierarchical-0:secondary SFSymbolsPreviewWireframe" d="M28.2227 10.9863L66.6016 10.9863C78.418 10.9863 85.0586 4.3457 85.0586-7.4707L85.0586-37.1094C85.0586-48.9258 78.418-55.5664 66.6016-55.5664L28.2227-55.5664C16.4062-55.5664 9.76562-48.9258 9.76562-37.1094L9.76562-7.4707C9.76562 4.3457 16.4062 10.9863 28.2227 10.9863ZM29.3945-3.17383C25.8789-3.17383 23.9258-5.17578 23.9258-8.69141L23.9258-35.8887C23.9258-39.4043 25.8789-41.4062 29.3945-41.4062L65.4297-41.4062C68.9453-41.4062 70.8984-39.4043 70.8984-35.8887L70.8984-8.69141C70.8984-5.17578 68.9453-3.17383 65.4297-3.17383Z" data-clipstroke-keyframes="0 4 0 0.57614934 1.3871584 0 0.06747597 0.5088204 1.4934773 0 0.20334733 0.37294903 1.563524 0 0.31370574 0.2594565 1.7280977 0 0.42752582 0.14877054 1.772918 0 0.5745323 0.0017640776 1.0044428 0 0.7008497 0.8754466 1.0595857 0 0.8003002 0.7759962 1.2164624 0 0.9292899 0.64700645 1.2756004 0 1 0.57614934 1.3873758"/>
   <path class="monochrome-1 multicolor-1:tintColor hierarchical-1:primary SFSymbolsPreviewWireframe" d="M60.7422-30.0781L60.7422-78.4668C60.7422-85.6934 54.8828-91.748 47.4121-91.748C39.9414-91.748 34.082-85.6934 34.082-78.4668L34.082-30.0781C34.082-22.8516 39.9414-16.7969 47.4121-16.7969C54.8828-16.7969 60.7422-22.8516 60.7422-30.0781Z"/>
   <path class="monochrome-2 multicolor-2:tintColor hierarchical-2:primary SFSymbolsPreviewWireframe" d="M47.4121-24.1211C50.8301-24.1211 53.418-26.9043 53.418-30.0781L53.418-66.0156L52.002-80.3223C51.7578-82.8613 49.9512-84.9121 47.4121-84.9121C44.873-84.9121 43.0664-82.8613 42.8223-80.3223L41.4062-66.0156L41.4062-30.0781C41.4062-26.9043 43.9941-24.1211 47.4121-24.1211Z" data-clipstroke-keyframes="0 0 0 0.06914902 0.92921543 0 0.7076924 0.3316989 0.6688261 0 1 0.44027567 0.5614047"/>
   <path class="monochrome-3 multicolor-3:tintColor hierarchical-3:primary SFSymbolsPreviewWireframe" d="M33.4961-63.0371C35.0098-63.0371 36.3281-63.6719 37.3047-64.6973L40.5762-68.1641L47.4121-80.0293L54.248-68.1641L57.5195-64.6973C58.4961-63.6719 59.8145-63.0371 61.3281-63.0371C63.8184-63.0371 66.3574-64.9902 66.3574-67.8711C66.3574-69.3359 65.8203-70.3613 64.8438-71.3379L52.3926-83.252C50.7812-84.8145 49.0723-85.4004 47.4121-85.4004C45.752-85.4004 44.043-84.8145 42.4316-83.252L29.9805-71.3379C29.0039-70.3613 28.4668-69.3359 28.4668-67.8711C28.4668-64.9902 31.0059-63.0371 33.4961-63.0371Z"/>
  </g>
  <g id="Regular-S" transform="matrix(1 0 0 1 1405.73 696)">
   <path class="monochrome-0 multicolor-0:tintColor hierarchical-0:secondary SFSymbolsPreviewWireframe" d="M25.9766 6.29883L62.2559 6.29883C72.6562 6.29883 78.4668 0.537109 78.4668-9.86328L78.4668-39.502C78.4668-49.9023 72.6562-55.7129 62.2559-55.7129L25.9766-55.7129C15.5762-55.7129 9.76562-49.9023 9.76562-39.502L9.76562-9.86328C9.76562 0.537109 15.5762 6.29883 25.9766 6.29883ZM25.9766-0.732422C20.1172-0.732422 16.7969-4.00391 16.7969-9.86328L16.7969-39.502C16.7969-45.3613 20.1172-48.6816 25.9766-48.6816L62.2559-48.6816C68.1152-48.6816 71.4355-45.3613 71.4355-39.502L71.4355-9.86328C71.4355-4.00391 68.1152-0.732422 62.2559-0.732422Z" data-clipstroke-keyframes="0 4 0 0.5778289 1.4036702 0 0.07860068 0.4989718 1.5005382 0 0.19108725 0.38674164 1.5807531 0 0.32953632 0.24245372 1.744724 0 0.42349875 0.15433012 1.8090434 0 0.5786007 0.9992282 1.0008955 0 0.68812776 0.88970107 1.0774014 0 0.81297237 0.7648565 1.231612 0 0.92532027 0.65250856 1.3112382 0 1 0.5778289 1.4036702"/>
   <path class="monochrome-1 multicolor-1:tintColor hierarchical-1:primary SFSymbolsPreviewWireframe" d="M55.2246-27.3438L55.2246-75.5371C55.2246-81.5918 50.1953-86.5723 44.0918-86.5723C38.0371-86.5723 32.959-81.5918 32.959-75.5371L32.959-27.3438C32.959-21.2891 38.0371-16.3086 44.0918-16.3086C50.1953-16.3086 55.2246-21.2891 55.2246-27.3438Z"/>
   <path class="monochrome-2 multicolor-2:tintColor hierarchical-2:primary SFSymbolsPreviewWireframe" d="M44.0918-23.9746C45.9961-23.9746 47.6074-25.4883 47.6074-27.3438L47.6074-65.3809L47.0215-76.5137C46.9238-78.125 45.7031-79.4434 44.0918-79.4434C42.5293-79.4434 41.3086-78.125 41.2109-76.5137L40.625-65.3809L40.625-27.3438C40.625-25.4883 42.2363-23.9746 44.0918-23.9746Z" data-clipstroke-keyframes="0 0 0 0.045304775 0.9540663 0 0.774843 0.36777163 0.63259506 0 1 0.4613304 0.5390363"/>
   <path class="monochrome-3 multicolor-3:tintColor hierarchical-3:primary SFSymbolsPreviewWireframe" d="M31.1523-62.207C31.9824-62.207 32.959-62.5488 33.5449-63.2812L38.9648-69.1406L44.0918-74.6582L49.2676-69.1406L54.6387-63.2812C55.2734-62.5488 56.1523-62.207 57.0312-62.207C58.8379-62.207 60.2051-63.5254 60.2051-65.2832C60.2051-66.2109 59.8145-66.9434 59.1797-67.5781L46.6309-79.541C45.752-80.4688 45.0195-80.7129 44.0918-80.7129C43.2129-80.7129 42.4805-80.4688 41.5527-79.541L29.0527-67.5781C28.3691-66.9434 28.0273-66.2109 28.0273-65.2832C28.0273-63.5254 29.3457-62.207 31.1523-62.207Z"/>
  </g>
  <g id="Ultralight-S" transform="matrix(1 0 0 1 517.797 696)">
   <path class="monochrome-0 multicolor-0:tintColor hierarchical-0:secondary SFSymbolsPreviewWireframe" d="M24.8413 3.30178L58.9409 3.30178C68.6602 3.30178 74.062-2.14207 74.062-11.8613L74.062-40.4556C74.062-50.1748 68.6602-55.5767 58.9409-55.5767L24.8413-55.5767C15.1675-55.5767 9.76562-50.1748 9.76562-40.4556L9.76562-11.8613C9.76562-2.14207 15.1675 3.30178 24.8413 3.30178ZM24.7959 1.08397C16.5752 1.08397 11.9834-3.54981 11.9834-11.8159L11.9834-40.501C11.9834-48.7671 16.5752-53.3588 24.7959-53.3588L58.9409-53.3588C67.2524-53.3588 71.8442-48.7671 71.8442-40.501L71.8442-11.8159C71.8442-3.54981 67.2524 1.08397 58.9409 1.08397Z" data-clipstroke-keyframes="0 4 0 0.5775834 1.4168186 0 0.08414345 0.49270996 1.5062147 0 0.1842382 0.3935961 1.5968544 0 0.3379676 0.23701842 1.7582424 0 0.4178308 0.15975258 1.828953 0 0.5840511 0.9935323 1.0067518 0 0.68064135 0.89743096 1.0936061 0 0.81997913 0.7571105 1.2413504 0 0.91988283 0.65770054 1.3311802 0 1 0.5775834 1.4168186"/>
   <path class="monochrome-1 multicolor-1:tintColor hierarchical-1:primary SFSymbolsPreviewWireframe" d="M48.0499-26.3447L48.0499-78.0801C48.0499-81.4556 45.2911-84.211 41.9121-84.211C38.5366-84.211 35.7744-81.4556 35.7744-78.0801L35.7744-26.3447C35.7744-22.9692 38.5366-20.2138 41.9121-20.2138C45.2911-20.2138 48.0499-22.9692 48.0499-26.3447Z"/>
   <path class="monochrome-2 multicolor-2:tintColor hierarchical-2:primary SFSymbolsPreviewWireframe" d="M41.9121-25.2461C42.4995-25.2461 43.021-25.7153 43.021-26.3447L43.021-69.0591L42.9346-75.7417C42.9278-76.2632 42.4336-76.7642 41.9121-76.7642C41.3486-76.7642 40.8999-76.2632 40.8931-75.7417L40.8066-69.0591L40.8066-26.3447C40.8066-25.7153 41.3281-25.2461 41.9121-25.2461Z" data-clipstroke-keyframes="0 0 0 0.015887737 0.98279476 0 0.86756504 0.42205095 0.57797813 0 1 0.48444557 0.5165734"/>
   <path class="monochrome-3 multicolor-3:tintColor hierarchical-3:primary SFSymbolsPreviewWireframe" d="M28.791-62.6157C29.0762-62.6157 29.3716-62.7759 29.5943-63.0088L37.8296-71.3203L41.9121-75.3848L45.9073-71.3203L54.1846-63.0088C54.4107-62.7759 54.6992-62.6157 54.9878-62.6157C55.4776-62.6157 55.982-63.1167 55.982-63.6485C55.982-63.9404 55.8638-64.1734 55.6377-64.354L42.6802-77.3613C42.437-77.6079 42.2041-77.7158 41.9121-77.7158C41.6235-77.7158 41.3452-77.6079 41.144-77.3613L28.1445-64.354C27.915-64.1734 27.8003-63.9404 27.8003-63.6485C27.8003-63.1167 28.2105-62.6157 28.791-62.6157Z"/>
  </g>
 </g>
 <g id="Data">
  <g id="Black-S-draw-attachment-data" data-d="0 1 0 2933.39 616.613"/>
  <g id="Regular-S-draw-attachment-data" data-d="0 1 0 1449.84 619.53"/>
  <g id="Ultralight-S-draw-attachment-data" data-d="0 1 0 559.711 620.35"/>
 </g>
</svg>
